<svg width="16" height="16" viewBox="0 0 16 16" fill="none" xmlns="http://www.w3.org/2000/svg">
<path d="M8.00001 5.65672C6.70977 5.65672 5.65684 6.70965 5.65684 7.99989C5.65684 9.29012 6.70977 10.3431 8.00001 10.3431C9.29024 10.3431 10.3432 9.29012 10.3432 7.99989C10.3432 6.70965 9.29024 5.65672 8.00001 5.65672ZM15.0277 7.99989C15.0277 7.02957 15.0365 6.06805 14.982 5.0995C14.9275 3.9745 14.6709 2.97606 13.8483 2.1534C13.0238 1.32899 12.0272 1.07411 10.9022 1.01961C9.93184 0.965122 8.97032 0.973912 8.00176 0.973912C7.03145 0.973912 6.06993 0.965122 5.10137 1.01961C3.97637 1.07411 2.97794 1.33075 2.15528 2.1534C1.33087 2.97782 1.07598 3.9745 1.02149 5.0995C0.966999 6.06981 0.975788 7.03133 0.975788 7.99989C0.975788 8.96844 0.966999 9.93172 1.02149 10.9003C1.07598 12.0253 1.33262 13.0237 2.15528 13.8464C2.97969 14.6708 3.97637 14.9257 5.10137 14.9802C6.07169 15.0347 7.03321 15.0259 8.00176 15.0259C8.97208 15.0259 9.9336 15.0347 10.9022 14.9802C12.0272 14.9257 13.0256 14.669 13.8483 13.8464C14.6727 13.022 14.9275 12.0253 14.982 10.9003C15.0383 9.93172 15.0277 8.9702 15.0277 7.99989ZM8.00001 11.6052C6.00489 11.6052 4.39473 9.995 4.39473 7.99989C4.39473 6.00477 6.00489 4.39461 8.00001 4.39461C9.99512 4.39461 11.6053 6.00477 11.6053 7.99989C11.6053 9.995 9.99512 11.6052 8.00001 11.6052ZM11.7529 5.08895C11.2871 5.08895 10.9109 4.71278 10.9109 4.24696C10.9109 3.78114 11.2871 3.40497 11.7529 3.40497C12.2188 3.40497 12.5949 3.78114 12.5949 4.24696C12.5951 4.35757 12.5734 4.46712 12.5311 4.56934C12.4889 4.67156 12.4268 4.76443 12.3486 4.84265C12.2704 4.92086 12.1775 4.98288 12.0753 5.02514C11.9731 5.06741 11.8635 5.08909 11.7529 5.08895Z" fill="white" fill-opacity="0.8"/>
</svg>
